<svg width="100" height="100" viewBox="0 0 100 100" fill="none" xmlns="http://www.w3.org/2000/svg">
<path d="M50 87.5C29.325 87.5 12.5 70.6792 12.5 50C12.5 29.3208 29.325 12.5 50 12.5C70.675 12.5 87.5 29.3208 87.5 50C87.5 70.6792 70.675 87.5 50 87.5ZM50 20.8333C33.9167 20.8333 20.8333 33.9208 20.8333 50C20.8333 66.0792 33.9167 79.1667 50 79.1667C66.0833 79.1667 79.1667 66.0792 79.1667 50C79.1667 33.9208 66.0833 20.8333 50 20.8333ZM50 27.0833C37.3625 27.0833 27.0833 37.3667 27.0833 50C27.0833 62.6333 37.3625 72.9167 50 72.9167C62.6375 72.9167 72.9167 62.6333 72.9167 50C72.9167 37.3667 62.6375 27.0833 50 27.0833ZM68.7083 49.5917C64.4291 48.7983 60.0353 48.8577 55.7792 49.7667C55.2466 48.4067 54.6671 47.0656 54.0417 45.7458C57.7485 43.5223 60.982 40.5917 63.5583 37.1208C66.7733 40.488 68.6106 44.9372 68.7083 49.5917ZM60.375 34.4C58.1586 37.4591 55.3626 40.0527 52.1458 42.0333C50.1398 38.4548 47.7778 35.0877 45.0958 31.9833C46.6903 31.5203 48.3398 31.2737 50 31.25C53.8375 31.25 57.4 32.4167 60.375 34.4ZM41.0375 33.6333C43.9 36.7917 46.3625 40.2583 48.4375 43.9375C43.1869 46.1783 37.3898 46.8119 31.7792 45.7583C32.3847 43.2006 33.5221 40.799 35.1172 38.71C36.7124 36.6209 38.7296 34.8912 41.0375 33.6333ZM31.25 50C33.2 50.2667 35.15 50.5042 37.0792 50.5042C41.6523 50.4863 46.1717 49.5171 50.35 47.6583C50.8625 48.7458 51.3417 49.8417 51.7833 50.9625C45.5483 53.208 40.135 57.2811 36.25 62.65C33.0481 59.2145 31.2622 54.6962 31.25 50ZM39.3667 65.4125C42.7821 60.5641 47.6099 56.8873 53.1917 54.8833C54.5121 59.0723 55.3454 63.3994 55.675 67.7792C53.8453 68.3958 51.9306 68.7233 50 68.75C46.1978 68.75 42.4869 67.5852 39.3667 65.4125ZM59.6667 65.9833C59.2542 61.8167 58.4333 57.7208 57.1958 53.7458C60.887 53.02 64.6844 53.0215 68.375 53.75C67.8436 56.2787 66.7959 58.6704 65.2974 60.7754C63.799 62.8804 61.882 64.6534 59.6667 65.9833Z" fill="white"/>
</svg>
