<svg width="100" height="100" viewBox="0 0 100 100" fill="none" xmlns="http://www.w3.org/2000/svg">
<path d="M50 87.5C29.3208 87.5 12.5 70.675 12.5 50C12.5 29.325 29.3208 12.5 50 12.5C70.6792 12.5 87.5 29.325 87.5 50C87.5 70.675 70.6792 87.5 50 87.5ZM50 20.8333C33.9208 20.8333 20.8333 33.9167 20.8333 50C20.8333 66.0833 33.9208 79.1667 50 79.1667C66.0792 79.1667 79.1667 66.0833 79.1667 50C79.1667 33.9167 66.0792 20.8333 50 20.8333ZM56.5208 52.6083C57.2333 52.6083 57.8375 52.9583 58.3583 53.6708C58.875 54.375 59.1375 55.2458 59.1375 56.275C59.1375 57.3083 58.8792 58.1792 58.3583 58.8833C57.8375 59.5875 57.2292 59.9417 56.5208 59.9417C55.7667 59.9417 55.1167 59.5917 54.6 58.8833C54.0833 58.1792 53.8208 57.3083 53.8208 56.275C53.8208 55.2417 54.0792 54.375 54.6 53.6708C55.1208 52.9583 55.7708 52.6083 56.5208 52.6083ZM65.7292 43.0708C67.7375 45.2458 68.75 47.8833 68.75 50.9792C68.75 52.9875 68.5125 54.7917 68.0583 56.4C67.6901 57.7901 67.0991 59.1114 66.3083 60.3125C65.5893 61.3324 64.7065 62.2264 63.6958 62.9583C62.816 63.6294 61.8576 64.1906 60.8417 64.6292C59.975 64.9833 58.9833 65.2542 57.8583 65.4458C57.0238 65.6048 56.1807 65.7147 55.3333 65.775L53.5 65.8125L52.0333 65.8542L50 65.9L47.9667 65.8542L46.5 65.8125L44.6667 65.775C43.8192 65.7152 42.9761 65.6053 42.1417 65.4458C41.1195 65.2877 40.1186 65.0137 39.1583 64.6292C38.1425 64.1929 37.1851 63.6317 36.3083 62.9583C35.2973 62.2254 34.4133 61.3316 33.6917 60.3125C32.9009 59.1114 32.3099 57.7901 31.9417 56.4C31.4631 54.6334 31.2304 52.8093 31.25 50.9792C31.25 47.8833 32.2583 45.2458 34.2708 43.0708C34.05 42.9625 34.0375 41.8792 34.2375 39.8125C34.3885 37.8533 34.8367 35.9285 35.5667 34.1042C38.075 34.3708 41.1625 35.7875 44.8583 38.3417C46.1083 38.0167 47.8167 37.85 49.9958 37.85C52.2833 37.85 53.9917 38.0167 55.1375 38.3417C56.6712 37.288 58.2876 36.36 59.9708 35.5667C61.5292 34.8667 62.6542 34.4542 63.3625 34.3458L64.4208 34.1042C65.1375 35.8417 65.575 37.75 65.7542 39.8125C65.9625 41.8792 65.95 42.9625 65.7292 43.0708ZM50.0875 64.0167C54.6 64.0167 58 63.4792 60.3125 62.3917C62.6167 61.3083 63.7833 59.075 63.7833 55.7042C63.7833 53.75 63.05 52.1167 61.5792 50.8125C60.8463 50.1176 59.9189 49.6627 58.9208 49.5083C57.9292 49.3458 56.3917 49.3458 54.3208 49.5083C52.2583 49.675 50.8458 49.75 50.0875 49.75C49.0542 49.75 47.9333 49.6958 46.5417 49.5875L43.2792 49.3833C42.4148 49.3682 41.5521 49.4648 40.7125 49.6708C39.865 49.851 39.0768 50.2423 38.4208 50.8083C37.0208 52.0583 36.3083 53.6875 36.3083 55.7C36.3083 59.0708 37.45 61.3042 39.7292 62.3875C42.0083 63.475 45.4 64.0125 49.9125 64.0125L50.0875 64.0167ZM43.5625 52.6083C44.2708 52.6083 44.8792 52.9583 45.3958 53.6708C45.9125 54.375 46.175 55.2458 46.175 56.275C46.175 57.3083 45.9167 58.1792 45.3958 58.8833C44.8792 59.5875 44.2667 59.9417 43.5625 59.9417C42.8042 59.9417 42.1583 59.5917 41.6375 58.8833C41.1208 58.1792 40.8583 57.3083 40.8583 56.275C40.8583 55.2417 41.1167 54.375 41.6375 53.6708C42.1583 52.9583 42.8042 52.6083 43.5625 52.6083Z" fill="white"/>
</svg>
