<svg width="90" height="90" viewBox="0 0 90 90" fill="none" xmlns="http://www.w3.org/2000/svg">
<path d="M62 47.3937V59H55.1424V48.1691C55.1424 45.4504 54.1504 43.595 51.6672 43.595C49.7728 43.595 48.6432 44.8445 48.1472 46.0563C47.968 46.4895 47.92 47.0923 47.92 47.6951V59H41.0592C41.0592 59 41.152 40.6597 41.0592 38.7604H47.92V41.6266L47.8752 41.6926H47.92V41.6298C48.832 40.2484 50.4576 38.2832 54.1024 38.2832C58.6144 38.2832 62 41.1777 62 47.3937ZM33.8816 29C31.536 29 30 30.5132 30 32.4973C30 34.4437 31.4912 35.9977 33.792 35.9977H33.8368C36.2304 35.9977 37.7184 34.4406 37.7184 32.4973C37.6736 30.5132 36.2304 29 33.8816 29ZM30.4064 59H37.2672V38.7604H30.4064V59Z" fill="white"/>
<path d="M45.5 83C24.825 83 8 66.1792 8 45.5C8 24.8208 24.825 8 45.5 8C66.175 8 83 24.8208 83 45.5C83 66.1792 66.175 83 45.5 83ZM45.5 16.3333C29.4167 16.3333 16.3333 29.4208 16.3333 45.5C16.3333 61.5792 29.4167 74.6667 45.5 74.6667C61.5833 74.6667 74.6667 61.5792 74.6667 45.5C74.6667 29.4208 61.5833 16.3333 45.5 16.3333Z" fill="white"/>
</svg>
