<svg width="100" height="100" viewBox="0 0 100 100" fill="none" xmlns="http://www.w3.org/2000/svg">
<path d="M63.6625 42.8458C65.1542 41.925 66.15 40.675 66.6333 39.0792C65.2668 39.819 63.8001 40.3565 62.2792 40.675C61.6573 39.9909 60.8958 39.4483 60.0461 39.0838C59.1965 38.7194 58.2785 38.5416 57.3542 38.5625C55.4208 38.5625 53.7917 39.2417 52.4583 40.5583C51.8159 41.1851 51.308 41.9361 50.9656 42.7657C50.6231 43.5953 50.4534 44.486 50.4667 45.3833C50.4667 45.9542 50.5375 46.4667 50.6833 46.9C44.9833 46.7 40.2708 44.3417 36.5542 39.7917C35.9445 40.8278 35.6183 42.0062 35.6083 43.2083C35.6083 45.6167 36.625 47.525 38.65 48.9292C37.5859 48.8572 36.5492 48.5604 35.6083 48.0583C35.6083 49.7792 36.1125 51.2167 37.1292 52.4833C38.1417 53.7333 39.45 54.5333 41.0417 54.8708C40.4493 55.0208 39.8402 55.095 39.2292 55.0917C38.8121 55.1156 38.3942 55.0633 37.9958 54.9375C38.4292 56.3417 39.2292 57.475 40.3875 58.3458C41.5417 59.2208 42.875 59.6792 44.375 59.7208C41.9674 61.635 38.9714 62.6568 35.8958 62.6125C35.1125 62.6125 34.5625 62.6042 34.2292 62.5417C37.3527 64.5734 41.0074 65.636 44.7333 65.5958C48.6958 65.5958 52.2 64.5917 55.2417 62.5833C58.2833 60.5875 60.5375 58.125 61.9792 55.2208C63.4067 52.4147 64.1505 49.3108 64.15 46.1625V45.2917C65.55 44.2375 66.6875 43.05 67.5583 41.7333C66.3187 42.2861 65.0071 42.6607 63.6625 42.8458ZM50 87.5C39.625 87.5 30.6875 83.7917 23.4333 76.475C16.1792 69.1792 12.5 60.2708 12.5 50C12.5 39.6333 16.1833 30.6917 23.4458 23.4375C30.6958 16.1833 39.6292 12.5 50 12.5C60.275 12.5 69.1833 16.1792 76.475 23.4333C83.7917 30.6917 87.5 39.6333 87.5 50C87.5 60.2708 83.7958 69.1833 76.4833 76.4875C69.1875 83.7917 60.2792 87.5 50 87.5ZM50 20.8333C41.8083 20.8333 35.05 23.6125 29.3417 29.3333C23.6125 35.05 20.8333 41.8083 20.8333 50C20.8333 58.1 23.6167 64.8417 29.3458 70.6042C35.0625 76.3667 41.8167 79.1667 50 79.1667C58.0958 79.1667 64.8333 76.3625 70.5917 70.5958C76.3625 64.8292 79.1667 58.0875 79.1667 50C79.1667 41.8208 76.3667 35.0625 70.6042 29.3458C64.8417 23.6167 58.1042 20.8333 50 20.8333Z" fill="white"/>
</svg>
